<svg width="16" height="16" viewBox="0 0 16 16" fill="none" xmlns="http://www.w3.org/2000/svg">
<path d="M1.33594 8.0013C1.33594 5.48714 1.33594 4.23007 2.11699 3.44902C2.89803 2.66797 4.15511 2.66797 6.66927 2.66797H9.33594C11.8501 2.66797 13.1072 2.66797 13.8882 3.44902C14.6693 4.23007 14.6693 5.48714 14.6693 8.0013V9.33464C14.6693 11.8488 14.6693 13.1059 13.8882 13.8869C13.1072 14.668 11.8501 14.668 9.33594 14.668H6.66927C4.15511 14.668 2.89803 14.668 2.11699 13.8869C1.33594 13.1059 1.33594 11.8488 1.33594 9.33464V8.0013Z" stroke="#0078D2"/>
<path d="M4.66406 2.66797V1.66797" stroke="currentColor" stroke-linecap="round"/>
<path d="M11.3359 2.66797V1.66797" stroke="currentColor" stroke-linecap="round"/>
<circle cx="11" cy="11" r="1" stroke="currentColor"/>
<path d="M1.66406 6H14.3307" stroke="currentColor" stroke-linecap="round"/>
</svg>
