<svg width="16" height="16" viewBox="0 0 16 16" fill="none" xmlns="http://www.w3.org/2000/svg">
<path d="M10.6667 2.66797C12.1167 2.67604 12.902 2.74034 13.4142 3.2526C14 3.83838 14 4.78119 14 6.66681V10.6668C14 12.5524 14 13.4952 13.4142 14.081C12.8284 14.6668 11.8856 14.6668 10 14.6668H6C4.11438 14.6668 3.17157 14.6668 2.58579 14.081C2 13.4952 2 12.5524 2 10.6668V6.66681C2 4.78119 2 3.83838 2.58579 3.2526C3.09804 2.74034 3.88332 2.67604 5.33333 2.66797" stroke="currentColor"/>
<path d="M7 9.33203L11.3333 9.33203" stroke="currentColor" stroke-linecap="round"/>
<path d="M4.66406 9.33398H4.9974" stroke="currentColor" stroke-linecap="round"/>
<path d="M4.66406 7H4.9974" stroke="currentColor" stroke-linecap="round"/>
<path d="M4.66406 11.666H4.9974" stroke="currentColor" stroke-linecap="round"/>
<path d="M7 7H11.3333" stroke="currentColor" stroke-linecap="round"/>
<path d="M7 11.668H11.3333" stroke="currentColor" stroke-linecap="round"/>
<path d="M5.33594 2.33398C5.33594 1.7817 5.78365 1.33398 6.33594 1.33398H9.66927C10.2216 1.33398 10.6693 1.7817 10.6693 2.33398V3.00065C10.6693 3.55294 10.2216 4.00065 9.66927 4.00065H6.33594C5.78365 4.00065 5.33594 3.55294 5.33594 3.00065V2.33398Z" stroke="currentColor"/>
</svg>
