<svg width="16" height="16" viewBox="0 0 16 16" fill="none" xmlns="http://www.w3.org/2000/svg">
<path d="M4 7.33398C4 5.44837 4 4.50556 4.58579 3.91977C5.17157 3.33398 6.11438 3.33398 8 3.33398H10C11.8856 3.33398 12.8284 3.33398 13.4142 3.91977C14 4.50556 14 5.44837 14 7.33398V10.6673C14 12.5529 14 13.4957 13.4142 14.0815C12.8284 14.6673 11.8856 14.6673 10 14.6673H8C6.11438 14.6673 5.17157 14.6673 4.58579 14.0815C4 13.4957 4 12.5529 4 10.6673V7.33398Z" stroke="currentColor"/>
<path d="M4 12.6673C2.89543 12.6673 2 11.7719 2 10.6673V6.66732C2 4.15316 2 2.89608 2.78105 2.11503C3.5621 1.33398 4.81918 1.33398 7.33333 1.33398H10C11.1046 1.33398 12 2.22941 12 3.33398" stroke="currentColor"/>
</svg>
