<svg width="16" height="16" viewBox="0 0 16 16" fill="none" xmlns="http://www.w3.org/2000/svg">
<path d="M2 6.66536C2 4.15121 2 2.89413 2.78105 2.11308C3.5621 1.33203 4.81918 1.33203 7.33333 1.33203H8.66667C11.1808 1.33203 12.4379 1.33203 13.219 2.11308C14 2.89413 14 4.15121 14 6.66536V9.33203C14 11.8462 14 13.1033 13.219 13.8843C12.4379 14.6654 11.1808 14.6654 8.66667 14.6654H7.33333C4.81918 14.6654 3.5621 14.6654 2.78105 13.8843C2 13.1033 2 11.8462 2 9.33203V6.66536Z" stroke="currentColor"/>
<path d="M5.33594 8H10.6693" stroke="currentColor" stroke-linecap="round"/>
<path d="M5.33594 5.33203H10.6693" stroke="currentColor" stroke-linecap="round"/>
<path d="M5.33594 10.668H8.66927" stroke="currentColor" stroke-linecap="round"/>
</svg>
