<svg width="16" height="16" viewBox="0 0 16 16" fill="none" xmlns="http://www.w3.org/2000/svg">
<path d="M6 4H6.22458C6.38764 4 6.46923 4 6.54596 4.01842C6.61398 4.03475 6.67928 4.06175 6.73893 4.09831C6.80619 4.13952 6.86394 4.19727 6.97917 4.3125L9.021 6.35433C9.13629 6.46962 9.19362 6.52696 9.23485 6.59423C9.2714 6.65388 9.29877 6.71908 9.3151 6.78711C9.33334 6.86305 9.33334 6.94369 9.33333 7.10344V12M6 4H3.06641C2.69304 4 2.50654 4 2.36393 4.07266C2.23849 4.13658 2.13658 4.23849 2.07266 4.36393C2 4.50654 2 4.69336 2 5.06673V12.9334C2 13.3068 2 13.4932 2.07266 13.6358C2.13658 13.7612 2.23849 13.8635 2.36393 13.9274C2.5064 14 2.69268 14 3.06533 14L8.26737 14C8.64001 14 8.82699 14 8.96945 13.9274C9.0949 13.8635 9.1965 13.7614 9.26042 13.636C9.33308 13.4934 9.33333 13.3066 9.33333 12.9332V12M6 4V6.26667C6 6.64003 6 6.82659 6.07266 6.9692C6.13658 7.09464 6.23849 7.19683 6.36393 7.26074C6.5064 7.33333 6.69267 7.33333 7.06531 7.33333H9.33307M6.66667 4.00006V3.06673C6.66667 2.69336 6.66667 2.50654 6.73933 2.36393C6.80324 2.23849 6.90516 2.13658 7.0306 2.07266C7.17321 2 7.3597 2 7.73307 2H10.6667M10.6667 2H10.8912C11.0543 2 11.1359 2 11.2126 2.01842C11.2806 2.03475 11.346 2.06175 11.4056 2.09831C11.4729 2.13952 11.5306 2.19728 11.6458 2.3125L13.6877 4.35433C13.803 4.46963 13.8603 4.52696 13.9015 4.59423C13.9381 4.65388 13.9654 4.71908 13.9818 4.78711C14 4.86305 14 4.94368 14 5.10344V10.9332C14 11.3066 13.9997 11.4934 13.9271 11.636C13.8632 11.7614 13.762 11.8635 13.6365 11.9274C13.494 12 13.3073 12 12.9347 12H9.33333M10.6667 2V4.26667C10.6667 4.64003 10.6667 4.82659 10.7393 4.9692C10.8032 5.09464 10.9052 5.19683 11.0306 5.26074C11.1731 5.33333 11.3593 5.33333 11.732 5.33333H13.9997" stroke="currentColor" stroke-linecap="round" stroke-linejoin="round"/>
</svg>
