<svg width="16" height="16" viewBox="0 0 16 16" fill="none" xmlns="http://www.w3.org/2000/svg">
<g clip-path="url(#clip0_4_2466)">
<path d="M10.2616 2.70308L9.92715 3.07473L10.2616 2.70308ZM12.9008 5.07835L12.5663 5.44999L12.9008 5.07835ZM14.4357 6.77005L13.9789 6.97347L13.9789 6.97347L14.4357 6.77005ZM2.11406 13.8863L2.46761 13.5327L2.46761 13.5327L2.11406 13.8863ZM13.8853 13.8863L13.5317 13.5327L13.5317 13.5327L13.8853 13.8863ZM9.33301 14.1673H6.66634V15.1673H9.33301V14.1673ZM1.83301 9.33398V6.66732H0.833008V9.33398H1.83301ZM14.1663 9.04258V9.33398H15.1663V9.04258H14.1663ZM9.92715 3.07473L12.5663 5.44999L13.2353 4.7067L10.5961 2.33144L9.92715 3.07473ZM15.1663 9.04258C15.1663 7.91701 15.1764 7.20433 14.8924 6.56663L13.9789 6.97347C14.1562 7.37162 14.1663 7.82868 14.1663 9.04258H15.1663ZM12.5663 5.44999C13.4686 6.26205 13.8016 6.57531 13.9789 6.97347L14.8924 6.56663C14.6084 5.92892 14.0719 5.45967 13.2353 4.7067L12.5663 5.44999ZM6.6862 1.83398C7.74073 1.83398 8.13868 1.8417 8.49336 1.97781L8.85162 1.04419C8.28373 0.826265 7.66501 0.833984 6.6862 0.833984V1.83398ZM10.5961 2.33144C9.87212 1.67984 9.41944 1.26208 8.85162 1.04419L8.49336 1.97781C8.84811 2.11394 9.14734 2.37289 9.92715 3.07473L10.5961 2.33144ZM6.66634 14.1673C5.39513 14.1673 4.49202 14.1663 3.80691 14.0741C3.13618 13.984 2.74975 13.8149 2.46761 13.5327L1.7605 14.2398C2.25941 14.7387 2.89204 14.9601 3.67366 15.0652C4.44089 15.1684 5.4234 15.1673 6.66634 15.1673V14.1673ZM0.833008 9.33398C0.833008 10.5769 0.831946 11.5594 0.935097 12.3267C1.04018 13.1083 1.26159 13.7409 1.7605 14.2398L2.46761 13.5327C2.18547 13.2506 2.01636 12.8641 1.92618 12.1934C1.83407 11.5083 1.83301 10.6052 1.83301 9.33398H0.833008ZM9.33301 15.1673C10.576 15.1673 11.5585 15.1684 12.3257 15.0652C13.1073 14.9601 13.7399 14.7387 14.2388 14.2398L13.5317 13.5327C13.2496 13.8149 12.8632 13.984 12.1924 14.0741C11.5073 14.1663 10.6042 14.1673 9.33301 14.1673V15.1673ZM14.1663 9.33398C14.1663 10.6052 14.1653 11.5083 14.0732 12.1934C13.983 12.8641 13.8139 13.2506 13.5317 13.5327L14.2388 14.2398C14.7378 13.7409 14.9592 13.1083 15.0643 12.3267C15.1674 11.5594 15.1663 10.5769 15.1663 9.33398H14.1663ZM1.83301 6.66732C1.83301 5.3961 1.83407 4.49299 1.92618 3.80788C2.01636 3.13716 2.18547 2.75073 2.46761 2.46859L1.7605 1.76148C1.26159 2.26039 1.04018 2.89302 0.935097 3.67464C0.831946 4.44187 0.833008 5.42437 0.833008 6.66732H1.83301ZM6.6862 0.833984C5.43659 0.833984 4.44929 0.832931 3.67892 0.936034C2.89455 1.04101 2.2598 1.26218 1.7605 1.76148L2.46761 2.46859C2.74936 2.18684 3.13698 2.01748 3.81157 1.9272C4.50017 1.83504 5.40841 1.83398 6.6862 1.83398V0.833984Z" fill="currentColor"/>
<path d="M8.66699 1.66602V3.33268C8.66699 4.90403 8.66699 5.68971 9.15515 6.17786C9.6433 6.66602 10.429 6.66602 12.0003 6.66602H14.667" stroke="currentColor"/>
<path d="M3.99967 10.6667L7.33301 10.6667M7.33301 10.6667L6.08301 9.33333M7.33301 10.6667L6.08301 12" stroke="currentColor" stroke-linecap="round" stroke-linejoin="round"/>
</g>
<defs>
<clipPath id="clip0_4_2466">
<rect width="16" height="16" fill="white"/>
</clipPath>
</defs>
</svg>
