<svg width="16" height="16" viewBox="0 0 16 16" fill="none" xmlns="http://www.w3.org/2000/svg">
<g clip-path="url(#clip0_4_2470)">
<path d="M10.2626 2.70211L9.92813 3.07375L10.2626 2.70211ZM12.9018 5.07737L12.5673 5.44902L12.9018 5.07737ZM14.4367 6.76907L13.9799 6.97249L13.9799 6.97249L14.4367 6.76907ZM2.11503 13.8853L2.46859 13.5317L2.46859 13.5317L2.11503 13.8853ZM13.8863 13.8853L13.5327 13.5317L13.5327 13.5317L13.8863 13.8853ZM9.33398 14.1663H6.66732V15.1663H9.33398V14.1663ZM1.83398 9.33301V6.66634H0.833984V9.33301H1.83398ZM14.1673 9.04161V9.33301H15.1673V9.04161H14.1673ZM9.92813 3.07375L12.5673 5.44902L13.2363 4.70572L10.5971 2.33046L9.92813 3.07375ZM15.1673 9.04161C15.1673 7.91604 15.1774 7.20336 14.8934 6.56565L13.9799 6.97249C14.1572 7.37065 14.1673 7.8277 14.1673 9.04161H15.1673ZM12.5673 5.44902C13.4696 6.26108 13.8026 6.57434 13.9799 6.97249L14.8934 6.56565C14.6094 5.92795 14.0729 5.45869 13.2363 4.70572L12.5673 5.44902ZM6.68718 1.83301C7.74171 1.83301 8.13965 1.84073 8.49433 1.97683L8.8526 1.04321C8.2847 0.825289 7.66598 0.833008 6.68718 0.833008V1.83301ZM10.5971 2.33046C9.8731 1.67886 9.42042 1.2611 8.8526 1.04321L8.49433 1.97683C8.84908 2.11296 9.14831 2.37192 9.92813 3.07375L10.5971 2.33046ZM6.66732 14.1663C5.3961 14.1663 4.49299 14.1653 3.80788 14.0732C3.13716 13.983 2.75073 13.8139 2.46859 13.5317L1.76148 14.2388C2.26039 14.7378 2.89302 14.9592 3.67464 15.0643C4.44187 15.1674 5.42437 15.1663 6.66732 15.1663V14.1663ZM0.833984 9.33301C0.833984 10.576 0.832923 11.5585 0.936074 12.3257C1.04116 13.1073 1.26257 13.7399 1.76148 14.2388L2.46859 13.5317C2.18645 13.2496 2.01733 12.8632 1.92716 12.1924C1.83505 11.5073 1.83398 10.6042 1.83398 9.33301H0.833984ZM9.33398 15.1663C10.5769 15.1663 11.5594 15.1674 12.3267 15.0643C13.1083 14.9592 13.7409 14.7378 14.2398 14.2388L13.5327 13.5317C13.2506 13.8139 12.8641 13.983 12.1934 14.0732C11.5083 14.1653 10.6052 14.1663 9.33398 14.1663V15.1663ZM14.1673 9.33301C14.1673 10.6042 14.1663 11.5073 14.0741 12.1924C13.984 12.8632 13.8149 13.2496 13.5327 13.5317L14.2398 14.2388C14.7387 13.7399 14.9601 13.1073 15.0652 12.3257C15.1684 11.5585 15.1673 10.576 15.1673 9.33301H14.1673ZM1.83398 6.66634C1.83398 5.39513 1.83505 4.49202 1.92716 3.80691C2.01733 3.13618 2.18645 2.74975 2.46859 2.46761L1.76148 1.7605C1.26257 2.25941 1.04116 2.89204 0.936074 3.67366C0.832923 4.44089 0.833984 5.4234 0.833984 6.66634H1.83398ZM6.68718 0.833008C5.43757 0.833008 4.45026 0.831955 3.6799 0.935058C2.89553 1.04003 2.26078 1.2612 1.76148 1.7605L2.46859 2.46761C2.75034 2.18586 3.13796 2.01651 3.81255 1.92622C4.50115 1.83406 5.40939 1.83301 6.68718 1.83301V0.833008Z" fill="currentColor"/>
<path d="M8.66602 1.66699V3.33366C8.66602 4.90501 8.66602 5.69068 9.15417 6.17884C9.64233 6.66699 10.428 6.66699 11.9993 6.66699H14.666" stroke="currentColor"/>
<path d="M5.66732 8.99967L5.66732 12.333M5.66732 12.333L7.00065 11.083M5.66732 12.333L4.33398 11.083" stroke="currentColor" stroke-linecap="round" stroke-linejoin="round"/>
</g>
<defs>
<clipPath id="clip0_4_2470">
<rect width="16" height="16" fill="white"/>
</clipPath>
</defs>
</svg>
