<svg width="16" height="16" viewBox="0 0 16 16" fill="none" xmlns="http://www.w3.org/2000/svg">
<g clip-path="url(#clip0_4_2448)">
<path d="M1.33301 11.2667C1.33301 10.3938 1.33301 9.95729 1.52949 9.63667C1.63943 9.45726 1.79027 9.30642 1.96968 9.19648C2.2903 9 2.72676 9 3.59967 9H4.33301C5.59009 9 6.21863 9 6.60915 9.39052C6.99967 9.78105 6.99967 10.4096 6.99967 11.6667V12.4C6.99967 13.2729 6.99967 13.7094 6.80319 14.03C6.69325 14.2094 6.54241 14.3602 6.36301 14.4702C6.04238 14.6667 5.60592 14.6667 4.73301 14.6667C3.42364 14.6667 2.76895 14.6667 2.28801 14.3719C2.0189 14.207 1.79264 13.9808 1.62773 13.7117C1.33301 13.2307 1.33301 12.576 1.33301 11.2667Z" stroke="currentColor"/>
<path d="M9 3.60065C9 2.72774 9 2.29128 9.19648 1.97065C9.30642 1.79125 9.45726 1.64041 9.63667 1.53046C9.95729 1.33398 10.3938 1.33398 11.2667 1.33398C12.576 1.33398 13.2307 1.33398 13.7117 1.6287C13.9808 1.79362 14.207 2.01988 14.3719 2.28899C14.6667 2.76993 14.6667 3.42461 14.6667 4.73398C14.6667 5.6069 14.6667 6.04336 14.4702 6.36398C14.3602 6.54339 14.2094 6.69423 14.03 6.80417C13.7094 7.00065 13.2729 7.00065 12.4 7.00065H11.6667C10.4096 7.00065 9.78105 7.00065 9.39052 6.61013C9 6.2196 9 5.59106 9 4.33398V3.60065Z" stroke="currentColor"/>
<path d="M11 4.16732C11 3.82371 11 3.65191 11.0861 3.5306C11.1164 3.4878 11.1538 3.45043 11.1966 3.42006C11.3179 3.33398 11.4897 3.33398 11.8333 3.33398C12.1769 3.33398 12.3487 3.33398 12.47 3.42006C12.5129 3.45043 12.5502 3.4878 12.5806 3.5306C12.6667 3.65191 12.6667 3.82371 12.6667 4.16732C12.6667 4.51092 12.6667 4.68272 12.5806 4.80403C12.5502 4.84683 12.5129 4.88421 12.47 4.91458C12.3487 5.00065 12.1769 5.00065 11.8333 5.00065C11.4897 5.00065 11.3179 5.00065 11.1966 4.91458C11.1538 4.88421 11.1164 4.84683 11.0861 4.80403C11 4.68272 11 4.51092 11 4.16732Z" fill="currentColor"/>
<path d="M8.5 14.6667C8.5 14.9428 8.72386 15.1667 9 15.1667C9.27614 15.1667 9.5 14.9428 9.5 14.6667H8.5ZM9.59257 9.22471L9.87036 9.64044L9.87036 9.64044L9.59257 9.22471ZM9.22471 9.59257L8.80897 9.31479L8.80897 9.31479L9.22471 9.59257ZM12.6667 8.5H11.3333V9.5H12.6667V8.5ZM8.5 12.6667V14.6667H9.5V12.6667H8.5ZM11.3333 8.5C10.8756 8.5 10.4946 8.4994 10.1873 8.53066C9.8717 8.56277 9.57879 8.63257 9.31479 8.80897L9.87036 9.64044C9.94266 9.59213 10.052 9.54959 10.2886 9.52552C10.5335 9.5006 10.8548 9.5 11.3333 9.5V8.5ZM9.5 11.3333C9.5 10.8548 9.5006 10.5335 9.52552 10.2886C9.54959 10.052 9.59213 9.94266 9.64044 9.87036L8.80897 9.31479C8.63257 9.57879 8.56277 9.8717 8.53066 10.1873C8.4994 10.4946 8.5 10.8756 8.5 11.3333H9.5ZM9.31479 8.80897C9.11461 8.94273 8.94273 9.11461 8.80897 9.31479L9.64044 9.87036C9.70124 9.77937 9.77937 9.70124 9.87036 9.64044L9.31479 8.80897Z" fill="currentColor"/>
<path d="M15.1663 9C15.1663 8.72386 14.9425 8.5 14.6663 8.5C14.3902 8.5 14.1663 8.72386 14.1663 9H15.1663ZM13.8433 14.5652L14.0346 15.0271L14.0346 15.0271L13.8433 14.5652ZM14.5648 13.8436L14.1029 13.6522H14.1029L14.5648 13.8436ZM11.333 15.1667H12.6663V14.1667H11.333V15.1667ZM15.1663 11.3333V9H14.1663V11.3333H15.1663ZM12.6663 15.1667C12.9701 15.1667 13.223 15.1669 13.4299 15.1528C13.6413 15.1384 13.841 15.1073 14.0346 15.0271L13.6519 14.1032C13.6005 14.1245 13.5223 14.1442 13.3618 14.1551C13.1969 14.1664 12.9838 14.1667 12.6663 14.1667V15.1667ZM14.1663 12.6667C14.1663 12.9841 14.1661 13.1972 14.1548 13.3622C14.1439 13.5227 14.1242 13.6008 14.1029 13.6522L15.0268 14.0349C15.107 13.8413 15.1381 13.6416 15.1525 13.4302C15.1666 13.2233 15.1663 12.9705 15.1663 12.6667H14.1663ZM14.0346 15.0271C14.4838 14.841 14.8407 14.4841 15.0268 14.0349L14.1029 13.6522C14.0183 13.8564 13.8561 14.0187 13.6519 14.1032L14.0346 15.0271Z" fill="currentColor"/>
<path d="M1.33301 4.73398C1.33301 3.42461 1.33301 2.76993 1.62773 2.28899C1.79264 2.01988 2.0189 1.79362 2.28801 1.6287C2.76895 1.33398 3.42364 1.33398 4.73301 1.33398C5.60592 1.33398 6.04238 1.33398 6.36301 1.53046C6.54241 1.64041 6.69325 1.79125 6.80319 1.97065C6.99967 2.29128 6.99967 2.72774 6.99967 3.60065V4.33398C6.99967 5.59106 6.99967 6.2196 6.60915 6.61013C6.21863 7.00065 5.59009 7.00065 4.33301 7.00065H3.59967C2.72676 7.00065 2.2903 7.00065 1.96968 6.80417C1.79027 6.69423 1.63943 6.54339 1.52949 6.36398C1.33301 6.04336 1.33301 5.6069 1.33301 4.73398Z" stroke="currentColor"/>
<path d="M3.33301 4.16732C3.33301 3.82371 3.33301 3.65191 3.41908 3.5306C3.44945 3.4878 3.48682 3.45043 3.52963 3.42006C3.65093 3.33398 3.82274 3.33398 4.16634 3.33398C4.50995 3.33398 4.68175 3.33398 4.80305 3.42006C4.84586 3.45043 4.88323 3.4878 4.9136 3.5306C4.99967 3.65191 4.99967 3.82371 4.99967 4.16732C4.99967 4.51092 4.99967 4.68272 4.9136 4.80403C4.88323 4.84683 4.84586 4.88421 4.80305 4.91458C4.68175 5.00065 4.50995 5.00065 4.16634 5.00065C3.82274 5.00065 3.65093 5.00065 3.52963 4.91458C3.48682 4.88421 3.44945 4.84683 3.41908 4.80403C3.33301 4.68272 3.33301 4.51092 3.33301 4.16732Z" fill="currentColor"/>
<path d="M3.33301 11.8333C3.33301 11.4897 3.33301 11.3179 3.41908 11.1966C3.44945 11.1538 3.48682 11.1164 3.52963 11.0861C3.65093 11 3.82274 11 4.16634 11C4.50995 11 4.68175 11 4.80305 11.0861C4.84586 11.1164 4.88323 11.1538 4.9136 11.1966C4.99967 11.3179 4.99967 11.4897 4.99967 11.8333C4.99967 12.1769 4.99967 12.3487 4.9136 12.47C4.88323 12.5129 4.84586 12.5502 4.80305 12.5806C4.68175 12.6667 4.50995 12.6667 4.16634 12.6667C3.82274 12.6667 3.65093 12.6667 3.52963 12.5806C3.48682 12.5502 3.44945 12.5129 3.41908 12.47C3.33301 12.3487 3.33301 12.1769 3.33301 11.8333Z" fill="currentColor"/>
<path d="M10.667 11.8337C10.667 11.3655 10.667 11.1314 10.7793 10.9633C10.828 10.8905 10.8905 10.828 10.9633 10.7793C11.1314 10.667 11.3655 10.667 11.8337 10.667C12.3018 10.667 12.5359 10.667 12.704 10.7793C12.7768 10.828 12.8393 10.8905 12.888 10.9633C13.0003 11.1314 13.0003 11.3655 13.0003 11.8337C13.0003 12.3018 13.0003 12.5359 12.888 12.704C12.8393 12.7768 12.7768 12.8393 12.704 12.888C12.5359 13.0003 12.3018 13.0003 11.8337 13.0003C11.3655 13.0003 11.1314 13.0003 10.9633 12.888C10.8905 12.8393 10.828 12.7768 10.7793 12.704C10.667 12.5359 10.667 12.3018 10.667 11.8337Z" fill="currentColor"/>
</g>
<defs>
<clipPath id="clip0_4_2448">
<rect width="16" height="16" rx="5" fill="white"/>
</clipPath>
</defs>
</svg>
