<svg width="16" height="16" viewBox="0 0 16 16" fill="none" xmlns="http://www.w3.org/2000/svg">
<g clip-path="url(#clip0_4_2474)">
<path d="M1.33301 7.99967C1.33301 4.85698 1.33301 3.28563 2.30932 2.30932C3.28563 1.33301 4.85698 1.33301 7.99967 1.33301C11.1424 1.33301 12.7137 1.33301 13.69 2.30932C14.6663 3.28563 14.6663 4.85698 14.6663 7.99967C14.6663 11.1424 14.6663 12.7137 13.69 13.69C12.7137 14.6663 11.1424 14.6663 7.99967 14.6663C4.85698 14.6663 3.28563 14.6663 2.30932 13.69C1.33301 12.7137 1.33301 11.1424 1.33301 7.99967Z" stroke="currentColor"/>
<path d="M10.652 5.80968L10.3573 5.50807C9.0556 4.17545 6.94505 4.17545 5.6433 5.50807C4.34156 6.84068 4.34156 9.00126 5.6433 10.3339C6.94505 11.6665 9.0556 11.6665 10.3573 10.3339C11.1144 9.55892 11.4311 8.50395 11.3077 7.49465M10.652 5.80968H8.88421M10.652 5.80968V4" stroke="currentColor" stroke-linecap="round" stroke-linejoin="round"/>
</g>
<defs>
<clipPath id="clip0_4_2474">
<rect width="16" height="16" fill="white"/>
</clipPath>
</defs>
</svg>
