<svg width="16" height="16" viewBox="0 0 16 16" fill="none" xmlns="http://www.w3.org/2000/svg">
<circle cx="8" cy="8" r="2" stroke="currentColor"/>
<path d="M9.17723 1.43353C8.9322 1.33203 8.62157 1.33203 8.00032 1.33203C7.37906 1.33203 7.06843 1.33203 6.82341 1.43353C6.4967 1.56885 6.23714 1.82842 6.10181 2.15512C6.04004 2.30426 6.01586 2.4777 6.0064 2.73069C5.9925 3.10248 5.80183 3.44663 5.47962 3.63265C5.15742 3.81867 4.76405 3.81172 4.43512 3.63787C4.21129 3.51956 4.049 3.45378 3.88895 3.43271C3.53835 3.38655 3.18378 3.48156 2.90323 3.69683C2.69282 3.85828 2.53751 4.1273 2.22688 4.66532C1.91625 5.20334 1.76094 5.47235 1.72632 5.7353C1.68016 6.0859 1.77517 6.44047 1.99044 6.72102C2.0887 6.84907 2.22679 6.95671 2.44112 7.09138C2.75619 7.28935 2.95892 7.6266 2.9589 7.99871C2.95888 8.37078 2.75616 8.70798 2.44111 8.90593C2.22676 9.04061 2.08865 9.14827 1.99038 9.27633C1.77511 9.55688 1.6801 9.91145 1.72626 10.262C1.76087 10.525 1.91619 10.794 2.22682 11.332C2.53744 11.8701 2.69276 12.1391 2.90317 12.3005C3.18371 12.5158 3.53829 12.6108 3.88888 12.5646C4.04892 12.5436 4.21121 12.4778 4.43502 12.3595C4.76397 12.1856 5.15737 12.1787 5.47959 12.3647C5.80182 12.5508 5.9925 12.8949 6.0064 13.2667C6.01586 13.5197 6.04004 13.6931 6.10181 13.8423C6.23714 14.169 6.4967 14.4285 6.82341 14.5639C7.06843 14.6654 7.37906 14.6654 8.00032 14.6654C8.62157 14.6654 8.9322 14.6654 9.17723 14.5639C9.50393 14.4285 9.7635 14.169 9.89882 13.8423C9.9606 13.6931 9.98478 13.5197 9.99424 13.2667C10.0081 12.8949 10.1988 12.5508 10.521 12.3647C10.8432 12.1787 11.2366 12.1856 11.5656 12.3595C11.7894 12.4778 11.9517 12.5435 12.1117 12.5646C12.4623 12.6108 12.8169 12.5157 13.0974 12.3005C13.3078 12.139 13.4631 11.87 13.7738 11.332C14.0844 10.794 14.2397 10.525 14.2743 10.262C14.3205 9.91141 14.2255 9.55683 14.0102 9.27629C13.9119 9.14823 13.7738 9.04058 13.5595 8.9059C13.2444 8.70794 13.0417 8.37072 13.0417 7.99864C13.0418 7.6266 13.2445 7.28942 13.5595 7.09149C13.7739 6.9568 13.912 6.84914 14.0103 6.72106C14.2255 6.44052 14.3205 6.08594 14.2744 5.73535C14.2398 5.4724 14.0844 5.20339 13.7738 4.66536C13.4632 4.12734 13.3079 3.85833 13.0975 3.69688C12.8169 3.48161 12.4623 3.3866 12.1118 3.43275C11.9517 3.45382 11.7894 3.5196 11.5656 3.6379C11.2367 3.81176 10.8433 3.81871 10.521 3.63267C10.1988 3.44663 10.0081 3.10247 9.99423 2.73066C9.98477 2.47768 9.9606 2.30425 9.89882 2.15512C9.7635 1.82842 9.50393 1.56885 9.17723 1.43353Z" stroke="currentColor"/>
</svg>
