<svg width="16" height="16" viewBox="0 0 16 16" fill="none" xmlns="http://www.w3.org/2000/svg">
<path d="M3 9.875V11.0001C3 11.7002 3 12.05 3.13624 12.3174C3.25608 12.5526 3.44717 12.744 3.68237 12.8639C3.9495 13 4.29937 13 4.99807 13H8M3 9.875V6.125M3 9.875H8M3 6.125V5.00012C3 4.30006 3 3.94976 3.13624 3.68237C3.25608 3.44717 3.44717 3.25608 3.68237 3.13624C3.94976 3 4.30006 3 5.00012 3H8M3 6.125H8M8 3H11.0001C11.7002 3 12.05 3 12.3174 3.13624C12.5526 3.25608 12.744 3.44717 12.8639 3.68237C13 3.9495 13 4.29937 13 4.99807V6.125M8 3V6.125M8 6.125V9.875M8 6.125H13M8 9.875V13M8 9.875H13M8 13H11.0022C11.7009 13 12.0503 13 12.3174 12.8639C12.5526 12.744 12.744 12.5526 12.8639 12.3174C13 12.0503 13 11.7009 13 11.0022V9.875M13 9.875V6.125" stroke="currentColor" stroke-linecap="round" stroke-linejoin="round"/>
</svg>
