<svg width="16" height="16" viewBox="0 0 16 16" fill="none" xmlns="http://www.w3.org/2000/svg">
<g clip-path="url(#clip0_4_2398)">
<path d="M3.15493 10.7566C2.12457 9.72626 1.60939 9.21109 1.4177 8.54268C1.226 7.87428 1.38983 7.16436 1.71748 5.74453L1.90643 4.92574C2.18209 3.73123 2.31991 3.13398 2.7289 2.72499C3.13789 2.31601 3.73514 2.17818 4.92965 1.90252L5.74844 1.71357C7.16827 1.38592 7.87818 1.22209 8.54659 1.41379C9.21499 1.60549 9.73017 2.12066 10.7605 3.15102L11.9803 4.37078C13.7729 6.16343 14.6693 7.05976 14.6693 8.17358C14.6693 9.28739 13.7729 10.1837 11.9803 11.9764C10.1876 13.769 9.2913 14.6654 8.17748 14.6654C7.06367 14.6654 6.16734 13.769 4.37468 11.9764L3.15493 10.7566Z" stroke="currentColor"/>
<circle cx="5.73718" cy="5.91797" r="1.33333" transform="rotate(-45 5.73718 5.91797)" stroke="currentColor"/>
<path d="M7.69548 12.332L12.3481 7.6792" stroke="currentColor" stroke-linecap="round"/>
</g>
<defs>
<clipPath id="clip0_4_2398">
<rect width="16" height="16" fill="white"/>
</clipPath>
</defs>
</svg>
