<svg width="16" height="16" viewBox="0 0 16 16" fill="none" xmlns="http://www.w3.org/2000/svg">
<path d="M6 5.5C6.00652 4.41249 6.05846 3.82353 6.47226 3.43934C6.94546 3 7.70706 3 9.23027 3L9.7688 3C11.292 3 12.0536 3 12.5268 3.43934C13 3.87868 13 4.58579 13 6L13 10C13 11.4142 13 12.1213 12.5268 12.5607C12.0536 13 11.292 13 9.7688 13L9.23027 13C7.70706 13 6.94546 13 6.47226 12.5607C6.05846 12.1765 6.00652 11.5875 6 10.5" stroke="currentColor" stroke-linecap="round"/>
<path d="M9 8L2 8M2 8L3.88461 6M2 8L3.88462 10" stroke="currentColor" stroke-linecap="round" stroke-linejoin="round"/>
</svg>
